<?xml version="1.0" encoding="utf-8"?>
<!-- Generator: Adobe Illustrator 24.0.3, SVG Export Plug-In . SVG Version: 6.00 Build 0)  -->
<svg version="1.1" id="Artwork" xmlns="http://www.w3.org/2000/svg" xmlns:xlink="http://www.w3.org/1999/xlink" x="0px" y="0px"
	 viewBox="0 0 377.01 150.24" style="enable-background:new 0 0 377.01 150.24;" xml:space="preserve">
<style type="text/css">
	.st0{fill:#96D700;}
	.st1{fill:#0097FE;}
</style>
<g id="XMLID_1_">
	<g id="XMLID_2_">
		<path id="XMLID_3_" d="M129.47,66.71c-2.12,2.75-4.79,4.14-7.91,4.14c-5.44,0-9.23-3.76-9.23-9.15c0-5.22,3.82-9.18,8.88-9.18
			c3.91,0,6.36,2.45,7.56,4.03l3.74-3.16c-2.65-3.56-6.86-5.67-11.3-5.67c-7.96,0-13.98,6.01-13.98,13.98
			c0,7.97,6.16,13.97,14.33,13.97c4.8,0,9.54-2.44,11.82-6.11L129.47,66.71z"/>
		<path id="XMLID_4_" d="M149.81,47.71c-7.9,0-13.86,6.01-13.86,13.98c0,7.97,5.96,13.97,13.86,13.97c7.91,0,13.87-5.99,13.87-13.97
			C163.68,53.72,157.72,47.71,149.81,47.71 M149.81,70.85c-5,0-8.76-3.93-8.76-9.15c0-5.22,3.76-9.18,8.76-9.18
			c5.01,0,8.77,3.96,8.77,9.18C158.58,66.91,154.81,70.85,149.81,70.85"/>
		<path id="XMLID_7_" d="M193.89,74.13V48.3h-4.93v2.72l-0.31-0.28c-2.32-2-5.16-3.03-8.4-3.03c-2.39,0-4.65,0.59-6.53,1.72
			c-4.34,2.55-6.91,7.15-6.91,12.27c0,5.11,2.57,9.68,6.83,12.21c1.88,1.1,4.39,1.76,6.75,1.76c3.14,0,5.87-0.98,8.08-2.9l0.32-0.29
			v1.94c0,3.3-0.48,5.48-1.55,7.11c-1.34,2.08-3.76,3.2-6.75,3.2c-4.66,0-7.26-2.5-9-4.75l-3.76,3.5c1.89,2.82,6.36,6.06,12.97,6.06
			c5.26,0,9.37-2.34,11.59-6.61C193.39,80.8,193.89,78.08,193.89,74.13 M188.79,66.84l-0.04,0.05c-1.83,2.48-4.69,3.96-7.61,3.96
			c-5.18,0-9.23-4.02-9.23-9.15c0-5.22,3.83-9.18,8.93-9.18c3.06,0,6.02,1.48,7.9,3.96l0.04,0.05V66.84z"/>
		<path id="XMLID_10_" d="M211.79,52.51c2.25,0,4.42,1.03,5.77,2.75c1.18,1.46,1.66,3.33,1.66,6.43v13.39h5.11v-13.1
			c0-4.37-0.79-7.22-2.62-9.55c-2.35-2.99-5.9-4.72-9.74-4.72c-4.29,0-7.04,2.19-8.02,3.14l-0.34,0.31V48.3h-4.92v26.79h5.09V56.52
			l0.04-0.05C205.03,55.01,207.69,52.51,211.79,52.51"/>
		<path id="XMLID_11_" d="M268.73,75.09V48.3h-20.26v-2.69c0-2.56,0.31-3.97,1.09-4.98c0.92-1.21,2.61-1.98,4.31-1.98
			c0.69,0,1.43,0.08,1.89,0.18l1.07-4.65c-0.77-0.23-1.98-0.35-3.01-0.35c-3.6,0-6.79,1.6-8.75,4.42c-1.19,1.7-1.7,3.95-1.7,7.52
			v2.52h-4.52v4.52h4.52v22.27h5.1V52.81h15.15v22.27H268.73z"/>
		<path id="XMLID_12_" d="M272.94,61.69c0,5.11,2.55,9.68,6.84,12.21c1.86,1.1,4.39,1.76,6.73,1.76c3.15,0,6.07-1.07,8.25-3.01
			l0.34-0.31v2.74h4.92V34.41h-5.09v16.47l-0.32-0.26c-2.28-1.9-5.14-2.91-8.22-2.91c-2.39,0-4.66,0.59-6.53,1.72
			C275.51,51.98,272.94,56.57,272.94,61.69 M286.97,52.51c3.07,0,6.02,1.48,7.91,3.96l0.04,0.05v10.32l-0.04,0.06
			c-1.84,2.47-4.69,3.94-7.64,3.94c-5.17,0-9.21-4.02-9.21-9.15C278.04,56.47,281.88,52.51,286.97,52.51"/>
		<path id="XMLID_15_" d="M325.97,67.64c-1.66,1.81-3.9,3.61-7.82,3.61c-4.74,0-8.69-3.68-8.99-8.4v-0.21h20.97
			c0.03-0.42,0.03-0.74,0.03-0.95c0-7.97-5.54-13.98-12.87-13.98c-7.57,0-13.06,5.87-13.06,13.98c0,7.97,5.97,13.97,13.88,13.97
			c6.47,0,9.92-3.3,11.18-4.88L325.97,67.64z M309.64,58.16c0.93-3.57,4.14-6.05,7.82-6.05c3.39,0,6.56,2.61,7.37,6.06l0.05,0.23
			h-15.32L309.64,58.16z"/>
		<g id="XMLID_18_">
			<rect id="XMLID_19_" x="229.14" y="48.3" width="5.1" height="26.79"/>
			<rect id="XMLID_20_" x="228.77" y="35.49" width="5.84" height="5.83"/>
		</g>
		<rect id="XMLID_21_" x="263.25" y="35.49" width="5.85" height="5.83"/>
	</g>
	<polygon id="XMLID_22_" class="st0" points="65.31,75.64 46.7,75.64 46.7,47.71 65.31,47.71 65.31,57.01 56.01,57.01 56.01,66.34 
		65.31,66.34 	"/>
	<polygon id="XMLID_23_" class="st1" points="74.63,75.64 93.26,75.64 93.26,47.71 74.63,47.71 74.63,57.01 83.95,57.01 
		83.95,66.34 74.63,66.34 	"/>
</g>
<g>
	<path d="M50.76,103.55l-4.2,13.05h1.68l1.01-3.41h4.41l1.03,3.41h1.68l-4.21-13.05H50.76z M49.69,111.78l1.77-5.93l1.78,5.93H49.69
		z"/>
	<polygon points="68.57,111.75 67.04,103.55 64.83,103.55 63.3,111.74 62.07,103.55 59.44,103.55 61.77,116.6 64.42,116.6 
		65.93,108.91 67.45,116.6 70.1,116.6 72.42,103.55 69.81,103.55 	"/>
	<path d="M80.06,112.57c-0.01,0.72-0.12,1.23-0.36,1.55c-0.23,0.31-0.66,0.47-1.29,0.47c-0.63,0-1.06-0.16-1.3-0.47
		c-0.24-0.32-0.36-0.85-0.36-1.59v-8.98H74.1v8.97c0,1.38,0.37,2.43,1.11,3.16c0.74,0.73,1.81,1.09,3.2,1.09
		c1.37,0,2.43-0.36,3.16-1.08c0.73-0.72,1.11-1.76,1.12-3.11v-9.03h-2.64V112.57z"/>
	<polygon points="91.19,112.12 87.33,103.55 84.69,103.55 84.69,116.6 87.33,116.6 87.33,108.04 91.18,116.6 93.81,116.6 
		93.81,103.55 91.19,103.55 	"/>
	<path d="M99.38,103.55h-3.45v13.05h3.38c1.59,0,2.84-0.49,3.74-1.47c0.91-0.98,1.36-2.32,1.36-4.04v-2.12
		c-0.02-1.68-0.48-3.01-1.38-3.98C102.12,104.04,100.9,103.55,99.38,103.55z M101.77,111.32c-0.02,1.13-0.21,1.93-0.56,2.4
		c-0.36,0.46-0.98,0.7-1.86,0.7h-0.79v-8.66h0.96c0.82,0.02,1.4,0.28,1.74,0.76c0.34,0.48,0.51,1.33,0.51,2.55V111.32z"/>
	<polygon points="108.93,110.95 113.03,110.95 113.03,108.83 108.93,108.83 108.93,105.75 113.77,105.75 113.77,103.55 
		106.3,103.55 106.3,116.6 113.79,116.6 113.79,114.41 108.93,114.41 	"/>
	<path d="M124.02,107.49c0-1.26-0.36-2.23-1.08-2.92c-0.72-0.68-1.74-1.03-3.06-1.03h-4.2v13.05h2.64v-4.77h1.31l1.96,4.77h2.83
		v-0.13l-2.29-5.34C123.39,110.44,124.02,109.23,124.02,107.49z M120.99,109.11c-0.26,0.35-0.66,0.52-1.18,0.52h-1.5v-3.89h1.54
		c1.02,0,1.53,0.65,1.53,1.96C121.38,108.3,121.25,108.76,120.99,109.11z"/>
	<polygon points="131.73,112.99 129.27,103.55 125.83,103.55 125.83,116.6 128.46,116.6 128.46,113.07 128.22,107.63 130.83,116.6 
		132.62,116.6 135.23,107.63 134.98,113.07 134.98,116.6 137.63,116.6 137.63,103.55 134.19,103.55 	"/>
	<path d="M143.13,103.55l-4.08,13.05h2.79l0.7-2.67h3.59l0.7,2.67h2.81l-4.1-13.05H143.13z M143.11,111.73l1.22-4.65l1.22,4.65
		H143.11z"/>
	<polygon points="157.36,112.12 153.5,103.55 150.86,103.55 150.86,116.6 153.5,116.6 153.5,108.04 157.35,116.6 159.98,116.6 
		159.98,103.55 157.36,103.55 	"/>
	<polygon points="164.1,105.75 167.27,105.75 167.27,116.6 169.92,116.6 169.92,105.75 173.14,105.75 173.14,103.55 164.1,103.55 	
		"/>
	<polygon points="181.55,108.83 177.66,108.83 177.66,103.55 175.02,103.55 175.02,116.6 177.66,116.6 177.66,111.02 181.55,111.02 
		181.55,116.6 184.17,116.6 184.17,103.55 181.55,103.55 	"/>
	<path d="M190.77,103.37c-1.48,0-2.63,0.5-3.46,1.51c-0.83,1.01-1.25,2.41-1.25,4.2v2.23c0.01,1.73,0.44,3.07,1.27,4.03
		c0.84,0.96,1.99,1.44,3.45,1.44c1.47,0,2.62-0.48,3.45-1.45c0.83-0.97,1.24-2.33,1.24-4.08v-2.23c-0.01-1.79-0.44-3.17-1.27-4.16
		C193.36,103.87,192.22,103.37,190.77,103.37z M192.83,111.33c-0.01,1.11-0.18,1.93-0.51,2.46c-0.33,0.53-0.84,0.79-1.53,0.79
		c-0.71,0-1.24-0.27-1.58-0.81c-0.34-0.54-0.51-1.38-0.51-2.52v-2.32c0.01-1.13,0.19-1.97,0.52-2.52c0.33-0.55,0.85-0.83,1.55-0.83
		c0.71,0,1.22,0.29,1.56,0.86c0.33,0.57,0.5,1.45,0.5,2.62V111.33z"/>
	<polygon points="203.29,112.99 200.82,103.55 197.38,103.55 197.38,116.6 200.02,116.6 200.02,113.07 199.77,107.63 202.38,116.6 
		204.17,116.6 206.78,107.63 206.54,113.07 206.54,116.6 209.18,116.6 209.18,103.55 205.74,103.55 	"/>
	<path d="M215.74,103.55h-4.44v13.05h2.64v-4.59h1.76c1.34,0,2.4-0.37,3.15-1.11c0.76-0.74,1.14-1.75,1.14-3.03
		s-0.38-2.32-1.15-3.12C218.06,103.95,217.03,103.55,215.74,103.55z M216.9,109.32c-0.27,0.33-0.66,0.49-1.16,0.49h-1.81v-4.07h1.84
		c0.47,0.01,0.85,0.2,1.13,0.59c0.28,0.39,0.42,0.9,0.42,1.56C217.32,108.52,217.18,108.99,216.9,109.32z"/>
	<path d="M225.4,105.53c0.49,0,0.86,0.16,1.12,0.48c0.26,0.32,0.39,0.78,0.39,1.39h2.63c0-0.78-0.17-1.48-0.51-2.1
		c-0.34-0.61-0.82-1.09-1.45-1.43c-0.63-0.34-1.34-0.51-2.14-0.51c-1.2,0-2.19,0.33-2.97,1c-0.78,0.67-1.17,1.55-1.17,2.65
		c0,0.91,0.29,1.69,0.86,2.36c0.57,0.67,1.51,1.25,2.82,1.74c0.72,0.29,1.21,0.57,1.48,0.85c0.27,0.27,0.41,0.67,0.41,1.21
		c0,0.97-0.46,1.46-1.38,1.46c-0.66,0-1.14-0.17-1.43-0.51c-0.29-0.34-0.44-0.89-0.44-1.64h-2.64c0,0.88,0.2,1.64,0.59,2.28
		c0.39,0.64,0.93,1.14,1.63,1.49c0.69,0.35,1.46,0.52,2.3,0.52c1.24,0,2.23-0.32,2.95-0.96c0.72-0.64,1.08-1.53,1.08-2.66
		c0-1.03-0.29-1.88-0.86-2.55c-0.58-0.67-1.5-1.23-2.77-1.69c-0.73-0.31-1.24-0.61-1.52-0.9c-0.29-0.29-0.43-0.61-0.43-0.97
		c0-0.46,0.13-0.83,0.39-1.1C224.58,105.67,224.94,105.53,225.4,105.53z"/>
	<path d="M235.39,103.37c-1.48,0-2.63,0.5-3.46,1.51c-0.83,1.01-1.25,2.41-1.25,4.2v2.23c0.01,1.73,0.44,3.07,1.27,4.03
		c0.84,0.96,1.99,1.44,3.45,1.44c1.47,0,2.62-0.48,3.45-1.45c0.83-0.97,1.24-2.33,1.24-4.08v-2.23c-0.01-1.79-0.44-3.17-1.27-4.16
		C237.99,103.87,236.84,103.37,235.39,103.37z M237.45,111.33c-0.01,1.11-0.18,1.93-0.51,2.46c-0.33,0.53-0.84,0.79-1.53,0.79
		c-0.71,0-1.24-0.27-1.58-0.81c-0.34-0.54-0.51-1.38-0.51-2.52v-2.32c0.01-1.13,0.19-1.97,0.52-2.52c0.33-0.55,0.85-0.83,1.55-0.83
		c0.71,0,1.22,0.29,1.56,0.86c0.33,0.57,0.5,1.45,0.5,2.62V111.33z"/>
	<polygon points="248.48,112.12 244.62,103.55 241.98,103.55 241.98,116.6 244.62,116.6 244.62,108.04 248.47,116.6 251.11,116.6 
		251.11,103.55 248.48,103.55 	"/>
	<path d="M258.42,105.82c0.48-0.7,1.16-1.04,2.05-1.04c0.77,0,1.34,0.23,1.72,0.68c0.38,0.45,0.6,1.21,0.67,2.28h1.66
		c-0.06-1.4-0.43-2.48-1.12-3.24c-0.69-0.75-1.67-1.13-2.93-1.13c-1.37,0-2.45,0.49-3.24,1.48c-0.79,0.98-1.19,2.33-1.19,4.02v2.37
		c0,1.7,0.39,3.05,1.16,4.05c0.77,0.99,1.81,1.49,3.12,1.49c1.3,0,2.31-0.37,3.02-1.12c0.71-0.74,1.11-1.82,1.18-3.21h-1.66
		c-0.09,1.1-0.32,1.86-0.7,2.28c-0.38,0.42-0.99,0.64-1.85,0.64c-0.85,0-1.5-0.35-1.95-1.06c-0.45-0.71-0.67-1.72-0.67-3.04v-2.39
		C257.7,107.54,257.94,106.52,258.42,105.82z"/>
	<path d="M270.84,103.37c-1.38,0-2.45,0.49-3.23,1.48c-0.77,0.99-1.16,2.35-1.16,4.1v2.46c0.03,1.71,0.44,3.03,1.22,3.96
		c0.78,0.93,1.84,1.4,3.19,1.4c1.4,0,2.47-0.48,3.23-1.44c0.76-0.96,1.14-2.33,1.14-4.11v-2.37c-0.02-1.76-0.41-3.11-1.18-4.05
		C273.28,103.85,272.21,103.37,270.84,103.37z M273.59,111.38c-0.02,1.33-0.25,2.32-0.69,2.97c-0.44,0.64-1.12,0.97-2.04,0.97
		c-0.92,0-1.61-0.35-2.07-1.05c-0.46-0.7-0.7-1.71-0.7-3.05v-2.34c0.01-1.33,0.24-2.33,0.7-3.01c0.46-0.68,1.15-1.02,2.05-1.02
		c0.93,0,1.62,0.34,2.07,1.01c0.45,0.67,0.68,1.7,0.68,3.08V111.38z"/>
	<polygon points="283.28,114.2 279.88,103.55 277.76,103.55 277.76,116.6 279.4,116.6 279.4,111.52 279.25,106.46 282.65,116.6 
		283.9,116.6 287.32,106.43 287.16,111.52 287.16,116.6 288.8,116.6 288.8,103.55 286.69,103.55 	"/>
	<path d="M298.27,104.64c-0.69-0.73-1.65-1.09-2.86-1.09h-4.16v13.05h1.64v-5.11h2.64c1.2-0.02,2.13-0.37,2.79-1.05
		c0.66-0.68,0.99-1.64,0.99-2.9C299.31,106.33,298.97,105.37,298.27,104.64z M297.09,109.43c-0.39,0.44-0.95,0.66-1.67,0.66h-2.52
		v-5.13h2.53c0.7,0,1.25,0.24,1.65,0.71c0.4,0.47,0.6,1.1,0.6,1.89C297.67,108.37,297.48,108.99,297.09,109.43z"/>
	<path d="M303.37,103.55l-4.2,13.05h1.69l1.01-3.41h4.41l1.03,3.41h1.68l-4.21-13.05H303.37z M302.3,111.78l1.77-5.93l1.78,5.93
		H302.3z"/>
	<polygon points="317.65,113.65 312.41,103.55 310.76,103.55 310.76,116.6 312.41,116.6 312.41,106.54 317.64,116.6 319.28,116.6 
		319.28,103.55 317.65,103.55 	"/>
	<polygon points="328.31,103.55 325.64,110.1 322.97,103.55 321.1,103.55 324.81,111.73 324.81,116.6 326.45,116.6 326.45,111.73 
		330.16,103.55 	"/>
</g>
</svg>
